<?xml version="1.0" standalone="no"?>
<!DOCTYPE svg PUBLIC "-//W3C//DTD SVG 20010904//EN"
 "http://www.w3.org/TR/2001/REC-SVG-20010904/DTD/svg10.dtd">
<svg version="1.0" xmlns="http://www.w3.org/2000/svg"
 width="700.000000pt" height="700.000000pt" viewBox="0 0 700.000000 700.000000"
 preserveAspectRatio="xMidYMid meet">
<metadata>
Created by potrace 1.11, written by Peter Selinger 2001-2013
</metadata>
<g transform="translate(0.000000,700.000000) scale(0.100000,-0.100000)"
fill="#000000" stroke="none">
<path d="M1619 6666 c-2 -2 -40 -6 -84 -10 -114 -10 -132 -13 -241 -39 -235
-58 -408 -155 -557 -311 -146 -154 -250 -390 -286 -646 -6 -41 -13 -95 -17
-120 -8 -60 -8 -4009 0 -4080 17 -137 22 -174 37 -240 6 -25 12 -52 14 -60 8
-38 50 -152 80 -217 89 -192 240 -353 429 -458 117 -64 314 -124 481 -146 144
-19 554 -15 618 6 7 2 30 7 52 10 22 3 67 13 100 21 356 92 599 291 735 600
39 89 93 284 104 374 3 25 9 68 12 95 4 28 7 285 8 572 1 459 0 523 -14 529
-26 12 -1013 11 -1030 0 -13 -10 -15 -72 -16 -481 0 -346 -4 -484 -13 -522
-33 -133 -120 -198 -266 -197 -152 1 -234 63 -265 200 -17 72 -16 3845 0 3905
37 136 105 190 247 195 161 6 243 -51 284 -196 9 -33 13 -169 13 -517 1 -351
4 -475 13 -484 17 -17 1016 -18 1035 -1 11 9 13 111 12 539 -1 290 -4 542 -7
558 -3 17 -9 55 -12 85 -40 342 -209 650 -445 810 -98 66 -253 141 -320 155
-8 2 -40 10 -70 18 -30 9 -68 18 -85 21 -16 2 -50 7 -75 11 -25 4 -56 9 -70
12 -29 6 -395 14 -401 9z"/>
<path d="M5049 6666 c-2 -2 -35 -6 -74 -10 -194 -17 -362 -63 -518 -142 -96
-48 -217 -138 -273 -204 -12 -14 -32 -36 -44 -50 -34 -37 -102 -147 -132 -211
-59 -126 -102 -287 -125 -464 -11 -79 -10 -963 0 -1039 47 -350 216 -680 488
-956 115 -117 180 -171 399 -332 97 -72 245 -192 309 -252 217 -204 325 -350
387 -521 17 -45 19 -92 20 -475 2 -457 0 -480 -51 -560 -47 -75 -131 -110
-248 -104 -136 7 -208 65 -243 198 -10 38 -13 167 -14 520 0 264 -4 474 -9
480 -13 16 -1026 15 -1041 0 -8 -8 -10 -165 -7 -565 2 -305 6 -563 10 -575 3
-12 8 -45 12 -75 22 -174 93 -370 187 -516 179 -275 496 -443 908 -480 170
-16 482 -6 590 18 175 39 238 59 341 107 116 53 199 111 289 202 144 143 239
322 289 544 18 77 22 101 38 221 9 69 10 1093 0 1185 -20 206 -110 456 -234
654 -120 190 -335 408 -588 595 -444 330 -652 542 -749 764 l-31 72 0 370 c0
327 2 376 18 420 35 101 108 154 223 162 141 10 241 -44 286 -155 22 -56 22
-64 24 -546 2 -320 6 -492 13 -499 7 -7 184 -10 520 -11 501 -1 510 -1 521 19
11 21 8 1075 -3 1125 -3 14 -8 43 -11 65 -17 138 -70 314 -129 430 -94 187
-255 348 -442 442 -116 59 -307 116 -427 129 -21 2 -50 6 -65 10 -30 6 -408
15 -414 10z"/>
</g>
</svg>
